<svg version="1.1" id="Layer_1" xmlns="http://www.w3.org/2000/svg" xmlns:xlink="http://www.w3.org/1999/xlink" x="0px" y="0px"
	 width="100%" viewBox="0 0 661 527" enable-background="new 0 0 661 527" xml:space="preserve">
<path fill="#010101" opacity="1.000000" stroke="none" 
	d="
M661.000000,528.000000 
	C442.306458,528.000000 223.612946,528.000000 4.447603,527.531494 
	C3.975796,352.826782 3.975796,178.590546 3.975796,4.318569 
	C223.246368,4.318569 442.063263,4.318569 661.000000,4.318569 
	C661.000000,179.109222 661.000000,353.554626 661.000000,528.000000 
M264.944824,261.191162 
	C268.157990,261.839905 271.371124,262.488647 274.584290,263.137360 
	C260.906433,263.543579 247.846909,265.404877 235.764465,271.918152 
	C225.422577,277.493164 225.118622,278.879517 232.181824,287.879913 
	C236.076233,292.842438 237.285339,293.150940 242.316422,289.205658 
	C257.014038,277.680054 273.980225,273.134766 292.264465,273.354950 
	C301.500793,273.466156 310.800232,274.522583 319.409119,279.229950 
	C317.345215,284.624512 317.376404,289.288391 322.467529,292.728424 
	C328.360199,296.710083 334.176147,298.417328 341.039490,294.456940 
	C347.400574,290.786377 349.657959,286.064972 346.438721,278.886505 
	C372.988983,269.670319 397.539398,271.844879 420.548279,287.029297 
	C430.054596,293.302917 429.878937,293.569855 436.499634,284.113495 
	C436.881927,283.567505 437.202057,282.970428 437.633148,282.467407 
	C439.745697,280.002411 439.262695,277.779846 436.698029,276.195374 
	C432.610016,273.669800 428.626556,270.376617 424.133087,269.224213 
	C413.137756,266.404419 401.875946,264.623474 390.721375,262.424408 
	C394.311035,262.396362 398.310242,261.133636 402.312134,261.125153 
	C411.949219,261.104736 421.590118,261.611053 431.224243,262.026459 
	C436.217865,262.241760 438.504852,259.348694 439.134888,252.211823 
	C439.601898,246.922043 435.656677,248.129944 433.073914,248.158173 
	C423.786499,248.259628 414.504028,248.752121 405.217041,248.996582 
	C403.198120,249.049728 401.168274,248.687103 399.143463,248.515976 
	C400.349457,246.854523 401.616119,246.224854 402.956635,245.897583 
	C410.866241,243.966553 418.764984,241.974091 426.726532,240.280273 
	C430.394836,239.499817 431.900055,238.250061 429.553406,234.643295 
	C427.828033,231.991440 426.153442,229.292328 424.671661,226.499939 
	C422.961365,223.276871 420.786682,222.589325 417.296295,223.844788 
	C401.020538,229.698929 384.365509,234.621277 368.451324,241.315552 
	C357.510803,245.917664 347.365326,252.565964 337.275787,258.949707 
	C333.786743,261.157257 331.814545,261.067780 328.510559,259.013214 
	C318.789185,252.968079 309.182220,246.480133 298.779755,241.853287 
	C285.133789,235.783768 270.957214,230.717972 256.665894,226.340118 
	C241.419281,221.669647 246.085968,219.687271 236.542206,234.368851 
	C234.301300,237.816116 234.905823,239.466980 239.277771,240.366989 
	C247.881210,242.138107 256.371521,244.474258 264.869659,246.723999 
	C266.096039,247.048676 267.106293,248.190033 267.776764,248.651047 
	C255.458740,248.503036 243.249130,248.275635 231.040512,248.319870 
	C229.639297,248.324936 227.267410,249.610748 227.003677,250.703033 
	C225.293915,257.784943 229.865524,262.356873 237.133179,261.915771 
	C246.083252,261.372498 255.066254,261.371857 264.944824,261.191162 
M364.622162,162.908340 
	C359.744507,161.661041 354.866882,160.413727 349.989227,159.166428 
	C360.202942,155.226578 370.546326,152.396530 380.964935,149.877533 
	C381.830322,149.668304 383.714172,151.347931 384.210480,152.532913 
	C384.809723,153.963715 384.349976,155.810638 384.495636,157.464493 
	C384.804016,160.965332 383.887085,166.002441 389.079041,165.830078 
	C393.857666,165.671463 393.167847,160.750916 392.958984,157.468597 
	C392.535248,150.810608 393.635345,145.447952 401.234741,143.765015 
	C401.684418,143.665405 401.997833,142.950439 402.686188,142.167480 
	C400.685852,141.487518 399.140808,140.924133 397.572601,140.435013 
	C377.847229,134.282547 358.149597,128.037018 338.357208,122.107956 
	C335.380035,121.216087 331.708069,120.986046 328.779083,121.861076 
	C310.420563,127.345657 292.179535,133.223999 273.904877,138.988571 
	C270.635925,140.019730 267.391205,141.127899 264.135315,142.200500 
	C264.115509,142.556168 264.095703,142.911819 264.075867,143.267471 
	C281.746674,148.243805 299.417450,153.220154 317.088257,158.196487 
	C317.082336,158.609772 317.076416,159.023071 317.070465,159.436356 
	C313.577148,160.048935 310.081390,160.648224 306.591095,161.277496 
	C302.244629,162.061111 300.076630,164.297897 299.996521,169.093979 
	C299.794800,181.164688 299.730804,181.350708 310.811890,186.287918 
	C311.724060,186.694351 312.661530,187.084473 313.492096,187.627670 
	C326.121338,195.887192 338.825653,196.779770 351.740387,188.225327 
	C353.385223,187.135818 355.367004,186.558517 357.183777,185.724487 
	C367.042236,181.198761 369.695984,173.822235 364.622162,162.908340 
M420.151093,204.050980 
	C424.691986,183.558548 429.311188,163.082626 433.635864,142.544678 
	C434.011536,140.760681 433.046021,137.916061 431.688690,136.665588 
	C417.841248,123.908043 403.825073,111.331711 389.721710,98.856583 
	C388.261597,97.565002 385.935242,96.596306 384.006378,96.588608 
	C350.012085,96.453049 316.016968,96.452621 282.022675,96.589279 
	C280.101532,96.596992 277.789703,97.589806 276.329620,98.881409 
	C262.226501,111.356995 248.208084,123.930992 234.358810,136.686783 
	C232.997238,137.940857 232.007751,140.794647 232.393677,142.569244 
	C237.417542,165.669876 242.668488,188.721832 247.986771,211.757309 
	C249.584274,218.676682 250.659409,219.294785 258.371307,219.241608 
	C258.134827,218.085709 257.931183,216.962463 257.673950,215.851654 
	C252.265167,192.495468 246.889786,169.131378 241.384399,145.797974 
	C240.731308,143.029953 241.177261,141.203293 243.378250,139.269516 
	C255.520401,128.601562 267.477264,117.722466 279.642578,107.081436 
	C281.100281,105.806396 283.433411,104.901466 285.365265,104.893372 
	C317.193207,104.760101 349.021973,104.766350 380.850037,104.882423 
	C382.640076,104.888947 384.814514,105.672356 386.152710,106.844574 
	C398.435516,117.604179 410.641815,128.454971 422.656799,139.511307 
	C424.001587,140.748810 424.914215,143.623703 424.520233,145.406158 
	C419.415558,168.500748 414.037140,191.534821 408.730286,214.584747 
	C408.350983,216.232178 407.991119,217.884064 407.619781,219.544693 
	C414.459412,219.732056 417.833405,216.843399 418.423065,210.635193 
	C418.609436,208.673248 419.414673,206.770096 420.151093,204.050980 
M365.635681,216.158554 
	C365.039490,209.785873 365.051483,203.275986 363.654419,197.084000 
	C362.539215,192.141159 359.247955,191.498322 354.808319,194.272507 
	C350.716522,196.829315 346.671295,199.462906 342.648773,202.127899 
	C336.603943,206.132736 330.614929,206.373535 324.489258,202.246536 
	C320.074707,199.272339 315.579987,196.410294 311.037384,193.635071 
	C306.902832,191.109161 304.471832,191.697327 302.806519,196.088181 
	C301.407928,199.775635 300.159821,203.713150 299.907104,207.608871 
	C298.804016,224.613388 310.731750,239.422775 327.340973,242.182205 
	C345.018463,245.119110 360.424194,234.923294 365.635681,216.158554 
M299.641541,309.035431 
	C289.229492,301.729950 279.567688,293.744476 274.630554,281.093323 
	C272.231506,281.768066 269.917084,282.419006 267.152039,283.196686 
	C268.107422,285.999084 268.440674,288.627106 269.760193,290.593231 
	C283.772064,311.471954 302.655884,325.162476 328.264648,326.744934 
	C357.755280,328.567200 379.605896,314.558472 395.995575,290.997620 
	C397.496307,288.840240 397.902069,285.921173 398.930389,283.035614 
	C395.811249,282.257385 393.472626,281.673859 391.224762,281.113007 
	C380.741028,306.771362 340.010773,333.729523 299.641541,309.035431 
M263.662018,381.062286 
	C266.584229,391.665253 272.816162,396.372620 283.092865,395.739685 
	C291.750824,395.206451 298.132263,388.977570 299.204742,378.998260 
	C299.670837,374.661407 299.332123,369.955658 298.115295,365.779816 
	C295.668518,357.383362 289.008606,353.457275 279.673462,353.862518 
	C272.157867,354.188812 265.755737,359.158142 264.087250,366.977997 
	C263.174744,371.254852 263.655273,375.828949 263.662018,381.062286 
M371.899292,390.566650 
	C373.671783,395.378967 375.634399,395.984589 383.418121,393.875702 
	C380.033600,383.649292 376.666016,373.436676 373.272614,363.232635 
	C370.450806,354.747437 370.419586,355.123016 361.437866,354.693512 
	C356.508087,354.457733 356.037048,357.471161 355.360260,360.665436 
	C354.403778,365.179565 354.080963,369.852386 352.841125,374.276276 
	C350.976929,380.927826 348.553284,387.422607 346.065002,394.892090 
	C350.477753,393.829468 354.854614,397.246063 357.339478,392.241547 
	C359.805389,387.275208 367.298370,385.834045 371.899292,390.566650 
M439.089508,375.152161 
	C437.789856,371.202667 436.502563,367.249054 435.187958,363.304535 
	C432.339325,354.756897 432.316925,355.114594 423.389801,354.696899 
	C418.539825,354.469971 416.884766,357.566772 417.456146,360.562256 
	C418.514435,366.110168 415.848419,370.441559 414.458313,375.184174 
	C412.605560,381.504944 410.359955,387.710541 407.749725,395.571991 
	C412.333557,394.616394 418.176422,394.562866 418.536957,393.129913 
	C420.542328,385.159698 426.440491,388.375549 430.983551,387.927521 
	C431.761536,387.850830 433.002014,388.922119 433.465302,389.770721 
	C436.459717,395.255951 438.305267,395.972870 445.305176,393.791504 
	C443.314270,387.827972 441.324188,381.866852 439.089508,375.152161 
M230.925064,380.847443 
	C232.089035,384.316437 233.584808,387.715942 234.330017,391.272675 
	C235.192657,395.390015 238.065125,394.816772 240.847244,394.761871 
	C243.692123,394.705750 246.694199,395.656311 247.900772,391.311768 
	C249.945587,383.948792 252.648773,376.769104 255.060562,369.507507 
	C256.610901,364.839600 258.135010,360.162933 259.702667,355.393463 
	C249.714859,353.934326 249.711151,353.933136 246.924789,362.644379 
	C245.708893,366.445679 244.552689,370.266724 243.284637,374.050385 
	C242.814346,375.453674 242.101547,376.775665 241.499344,378.134735 
	C238.184143,371.559662 236.173843,365.116394 234.029251,358.718140 
	C233.585999,357.395752 232.941574,355.625458 231.880844,355.110840 
	C225.972122,352.244354 221.089432,355.512756 221.452377,361.858765 
	C223.429916,363.465637 225.387497,365.190613 226.319916,367.356873 
	C228.089157,371.467346 229.271133,375.830658 230.925064,380.847443 
M329.120331,364.223999 
	C332.469910,363.612457 335.819519,363.000885 339.909790,362.254089 
	C335.107635,354.950806 329.164642,353.283813 322.329163,353.910217 
	C315.338043,354.550873 310.569305,358.482758 308.122833,364.886719 
	C305.531708,371.669312 305.679016,378.643860 308.419098,385.387512 
	C311.269562,392.402771 317.383270,395.964355 325.594849,395.759369 
	C332.880646,395.577484 338.257141,391.735260 340.820007,384.516022 
	C337.881470,383.305939 334.920959,382.086792 331.659668,380.743774 
	C329.982086,384.780304 327.988068,388.058289 323.436584,386.989014 
	C318.839600,385.908997 317.972595,381.906342 317.669891,378.034119 
	C317.427185,374.929993 317.510071,371.685211 318.151978,368.651733 
	C319.384583,362.826782 322.864288,361.316376 329.120331,364.223999 
M390.844330,370.553040 
	C390.844330,378.479340 390.844330,386.405609 390.844330,394.497528 
	C394.608002,394.497528 397.701233,394.497528 401.023102,394.497528 
	C401.023102,381.217865 401.023102,368.208405 401.023102,354.846893 
	C398.683014,354.846893 396.708160,354.822357 394.734131,354.852203 
	C391.074097,354.907532 388.299591,358.723816 389.253662,362.128357 
	C389.936829,364.566223 390.324768,367.086792 390.844330,370.553040 
M391.907196,205.524582 
	C393.126068,198.197876 398.386841,194.673615 405.374603,191.897888 
	C397.589783,189.937988 392.785461,185.596481 390.695404,177.508301 
	C388.864990,185.821945 383.486725,189.740662 376.162476,191.861954 
	C377.748566,193.228439 378.689606,193.975311 379.751221,194.241562 
	C384.521332,195.437881 387.537354,198.173309 388.632538,203.122849 
	C388.872559,204.207382 390.371246,205.013397 391.907196,205.524582 
M272.771545,182.192352 
	C272.389587,189.392532 264.757599,188.430954 260.485626,192.396011 
	C264.287109,194.173660 268.024109,194.977631 270.291656,197.248764 
	C272.527466,199.488113 273.275574,203.212845 275.289459,207.630737 
	C277.250885,203.306046 277.975647,199.600662 280.192627,197.395264 
	C282.546326,195.053848 286.315918,194.135757 289.467194,192.596100 
	C289.605774,192.121780 289.744324,191.647461 289.882904,191.173141 
	C281.987640,190.040924 277.560211,185.339813 275.809448,176.587769 
	C274.242096,179.326309 273.620880,180.411758 272.771545,182.192352 
z"/>
<path fill="#DBDBDB" opacity="1.000000" stroke="none" 
	d="
M661.500000,528.000000 
	C661.000000,353.554626 661.000000,179.109222 661.000000,4.318569 
	C442.063263,4.318569 223.246368,4.318569 3.975796,4.318569 
	C3.975796,178.590546 3.975796,352.826782 3.987898,527.531494 
	C3.000291,528.000000 2.000582,528.000000 1.000654,528.000000 
	C1.000436,352.384705 1.000436,176.769424 1.000436,1.077065 
	C221.217850,1.077065 441.435730,1.077065 662.000000,1.077065 
	C662.000000,176.666519 662.000000,352.333252 661.500000,528.000000 
z"/>
<path fill="#F9F9F9" opacity="1.000000" stroke="none" 
	d="
M264.489929,261.163940 
	C255.066254,261.371857 246.083252,261.372498 237.133179,261.915771 
	C229.865524,262.356873 225.293915,257.784943 227.003677,250.703033 
	C227.267410,249.610748 229.639297,248.324936 231.040512,248.319870 
	C243.249130,248.275635 255.458740,248.503036 267.776764,248.651047 
	C267.106293,248.190033 266.096039,247.048676 264.869659,246.723999 
	C256.371521,244.474258 247.881210,242.138107 239.277771,240.366989 
	C234.905823,239.466980 234.301300,237.816116 236.542206,234.368851 
	C246.085968,219.687271 241.419281,221.669647 256.665894,226.340118 
	C270.957214,230.717972 285.133789,235.783768 298.779755,241.853287 
	C309.182220,246.480133 318.789185,252.968079 328.510559,259.013214 
	C331.814545,261.067780 333.786743,261.157257 337.275787,258.949707 
	C347.365326,252.565964 357.510803,245.917664 368.451324,241.315552 
	C384.365509,234.621277 401.020538,229.698929 417.296295,223.844788 
	C420.786682,222.589325 422.961365,223.276871 424.671661,226.499939 
	C426.153442,229.292328 427.828033,231.991440 429.553406,234.643295 
	C431.900055,238.250061 430.394836,239.499817 426.726532,240.280273 
	C418.764984,241.974091 410.866241,243.966553 402.956635,245.897583 
	C401.616119,246.224854 400.349457,246.854523 399.143463,248.515976 
	C401.168274,248.687103 403.198120,249.049728 405.217041,248.996582 
	C414.504028,248.752121 423.786499,248.259628 433.073914,248.158173 
	C435.656677,248.129944 439.601898,246.922043 439.134888,252.211823 
	C438.504852,259.348694 436.217865,262.241760 431.224243,262.026459 
	C421.590118,261.611053 411.949219,261.104736 402.312134,261.125153 
	C398.310242,261.133636 394.311035,262.396362 390.721375,262.424408 
	C401.875946,264.623474 413.137756,266.404419 424.133087,269.224213 
	C428.626556,270.376617 432.610016,273.669800 436.698029,276.195374 
	C439.262695,277.779846 439.745697,280.002411 437.633148,282.467407 
	C437.202057,282.970428 436.881927,283.567505 436.499634,284.113495 
	C429.878937,293.569855 430.054596,293.302917 420.548279,287.029297 
	C397.539398,271.844879 372.988983,269.670319 346.438721,278.886505 
	C349.657959,286.064972 347.400574,290.786377 341.039490,294.456940 
	C334.176147,298.417328 328.360199,296.710083 322.467529,292.728424 
	C317.376404,289.288391 317.345215,284.624512 319.409119,279.229950 
	C310.800232,274.522583 301.500793,273.466156 292.264465,273.354950 
	C273.980225,273.134766 257.014038,277.680054 242.316422,289.205658 
	C237.285339,293.150940 236.076233,292.842438 232.181824,287.879913 
	C225.118622,278.879517 225.422577,277.493164 235.764465,271.918152 
	C247.846909,265.404877 260.906433,263.543579 274.584290,263.137360 
	C271.371124,262.488647 268.157990,261.839905 264.489929,261.163940 
z"/>
<path fill="#F9F9F9" opacity="1.000000" stroke="none" 
	d="
M364.915283,163.172867 
	C369.695984,173.822235 367.042236,181.198761 357.183777,185.724487 
	C355.367004,186.558517 353.385223,187.135818 351.740387,188.225327 
	C338.825653,196.779770 326.121338,195.887192 313.492096,187.627670 
	C312.661530,187.084473 311.724060,186.694351 310.811890,186.287918 
	C299.730804,181.350708 299.794800,181.164688 299.996521,169.093979 
	C300.076630,164.297897 302.244629,162.061111 306.591095,161.277496 
	C310.081390,160.648224 313.577148,160.048935 317.070465,159.436356 
	C317.076416,159.023071 317.082336,158.609772 317.088257,158.196487 
	C299.417450,153.220154 281.746674,148.243805 264.075867,143.267471 
	C264.095703,142.911819 264.115509,142.556168 264.135315,142.200500 
	C267.391205,141.127899 270.635925,140.019730 273.904877,138.988571 
	C292.179535,133.223999 310.420563,127.345657 328.779083,121.861076 
	C331.708069,120.986046 335.380035,121.216087 338.357208,122.107956 
	C358.149597,128.037018 377.847229,134.282547 397.572601,140.435013 
	C399.140808,140.924133 400.685852,141.487518 402.686188,142.167480 
	C401.997833,142.950439 401.684418,143.665405 401.234741,143.765015 
	C393.635345,145.447952 392.535248,150.810608 392.958984,157.468597 
	C393.167847,160.750916 393.857666,165.671463 389.079041,165.830078 
	C383.887085,166.002441 384.804016,160.965332 384.495636,157.464493 
	C384.349976,155.810638 384.809723,153.963715 384.210480,152.532913 
	C383.714172,151.347931 381.830322,149.668304 380.964935,149.877533 
	C370.546326,152.396530 360.202942,155.226578 349.989227,159.166428 
	C354.866882,160.413727 359.744507,161.661041 364.915283,163.172867 
z"/>
<path fill="#EFEFEF" opacity="1.000000" stroke="none" 
	d="
M420.043884,204.445496 
	C419.414673,206.770096 418.609436,208.673248 418.423065,210.635193 
	C417.833405,216.843399 414.459412,219.732056 407.619781,219.544693 
	C407.991119,217.884064 408.350983,216.232178 408.730286,214.584747 
	C414.037140,191.534821 419.415558,168.500748 424.520233,145.406158 
	C424.914215,143.623703 424.001587,140.748810 422.656799,139.511307 
	C410.641815,128.454971 398.435516,117.604179 386.152710,106.844574 
	C384.814514,105.672356 382.640076,104.888947 380.850037,104.882423 
	C349.021973,104.766350 317.193207,104.760101 285.365265,104.893372 
	C283.433411,104.901466 281.100281,105.806396 279.642578,107.081436 
	C267.477264,117.722466 255.520401,128.601562 243.378250,139.269516 
	C241.177261,141.203293 240.731308,143.029953 241.384399,145.797974 
	C246.889786,169.131378 252.265167,192.495468 257.673950,215.851654 
	C257.931183,216.962463 258.134827,218.085709 258.371307,219.241608 
	C250.659409,219.294785 249.584274,218.676682 247.986771,211.757309 
	C242.668488,188.721832 237.417542,165.669876 232.393677,142.569244 
	C232.007751,140.794647 232.997238,137.940857 234.358810,136.686783 
	C248.208084,123.930992 262.226501,111.356995 276.329620,98.881409 
	C277.789703,97.589806 280.101532,96.596992 282.022675,96.589279 
	C316.016968,96.452621 350.012085,96.453049 384.006378,96.588608 
	C385.935242,96.596306 388.261597,97.565002 389.721710,98.856583 
	C403.825073,111.331711 417.841248,123.908043 431.688690,136.665588 
	C433.046021,137.916061 434.011536,140.760681 433.635864,142.544678 
	C429.311188,163.082626 424.691986,183.558548 420.043884,204.445496 
z"/>
<path fill="#F9F9F9" opacity="1.000000" stroke="none" 
	d="
M365.546082,216.557556 
	C360.424194,234.923294 345.018463,245.119110 327.340973,242.182205 
	C310.731750,239.422775 298.804016,224.613388 299.907104,207.608871 
	C300.159821,203.713150 301.407928,199.775635 302.806519,196.088181 
	C304.471832,191.697327 306.902832,191.109161 311.037384,193.635071 
	C315.579987,196.410294 320.074707,199.272339 324.489258,202.246536 
	C330.614929,206.373535 336.603943,206.132736 342.648773,202.127899 
	C346.671295,199.462906 350.716522,196.829315 354.808319,194.272507 
	C359.247955,191.498322 362.539215,192.141159 363.654419,197.084000 
	C365.051483,203.275986 365.039490,209.785873 365.546082,216.557556 
z"/>
<path fill="#EFEFEF" opacity="1.000000" stroke="none" 
	d="
M299.945129,309.240021 
	C340.010773,333.729523 380.741028,306.771362 391.224762,281.113007 
	C393.472626,281.673859 395.811249,282.257385 398.930389,283.035614 
	C397.902069,285.921173 397.496307,288.840240 395.995575,290.997620 
	C379.605896,314.558472 357.755280,328.567200 328.264648,326.744934 
	C302.655884,325.162476 283.772064,311.471954 269.760193,290.593231 
	C268.440674,288.627106 268.107422,285.999084 267.152039,283.196686 
	C269.917084,282.419006 272.231506,281.768066 274.630554,281.093323 
	C279.567688,293.744476 289.229492,301.729950 299.945129,309.240021 
z"/>
<path fill="#EFEFEF" opacity="1.000000" stroke="none" 
	d="
M263.584808,380.665649 
	C263.655273,375.828949 263.174744,371.254852 264.087250,366.977997 
	C265.755737,359.158142 272.157867,354.188812 279.673462,353.862518 
	C289.008606,353.457275 295.668518,357.383362 298.115295,365.779816 
	C299.332123,369.955658 299.670837,374.661407 299.204742,378.998260 
	C298.132263,388.977570 291.750824,395.206451 283.092865,395.739685 
	C272.816162,396.372620 266.584229,391.665253 263.584808,380.665649 
M282.219055,362.323059 
	C280.106262,363.352478 276.981628,363.829041 276.062744,365.510773 
	C272.780579,371.517761 272.861603,378.016052 276.047974,384.114166 
	C277.951477,387.757141 282.456146,388.306702 285.431732,385.754425 
	C291.040894,380.943207 289.473297,366.300751 282.219055,362.323059 
z"/>
<path fill="#EFEFEF" opacity="1.000000" stroke="none" 
	d="
M371.768402,390.160400 
	C367.298370,385.834045 359.805389,387.275208 357.339478,392.241547 
	C354.854614,397.246063 350.477753,393.829468 346.065002,394.892090 
	C348.553284,387.422607 350.976929,380.927826 352.841125,374.276276 
	C354.080963,369.852386 354.403778,365.179565 355.360260,360.665436 
	C356.037048,357.471161 356.508087,354.457733 361.437866,354.693512 
	C370.419586,355.123016 370.450806,354.747437 373.272614,363.232635 
	C376.666016,373.436676 380.033600,383.649292 383.418121,393.875702 
	C375.634399,395.984589 373.671783,395.378967 371.768402,390.160400 
M364.512299,380.008545 
	C365.708008,379.833710 366.903717,379.658844 368.951813,379.359375 
	C367.340698,376.436432 366.086609,374.161224 364.832458,371.885956 
	C364.213562,372.238983 363.018646,372.795074 363.060944,372.915039 
	C363.879456,375.236816 359.300201,378.031036 364.512299,380.008545 
z"/>
<path fill="#EEEEEE" opacity="1.000000" stroke="none" 
	d="
M439.211792,375.528931 
	C441.324188,381.866852 443.314270,387.827972 445.305176,393.791504 
	C438.305267,395.972870 436.459717,395.255951 433.465302,389.770721 
	C433.002014,388.922119 431.761536,387.850830 430.983551,387.927521 
	C426.440491,388.375549 420.542328,385.159698 418.536957,393.129913 
	C418.176422,394.562866 412.333557,394.616394 407.749725,395.571991 
	C410.359955,387.710541 412.605560,381.504944 414.458313,375.184174 
	C415.848419,370.441559 418.514435,366.110168 417.456146,360.562256 
	C416.884766,357.566772 418.539825,354.469971 423.389801,354.696899 
	C432.316925,355.114594 432.339325,354.756897 435.187958,363.304535 
	C436.502563,367.249054 437.789856,371.202667 439.211792,375.528931 
M425.508728,380.021729 
	C426.947754,380.021729 428.386780,380.021729 430.701599,380.021729 
	C429.324188,376.189087 428.214325,373.100861 427.104462,370.012665 
	C426.389954,370.075989 425.675415,370.139282 424.960907,370.202606 
	C424.844696,373.430878 424.728485,376.659119 425.508728,380.021729 
z"/>
<path fill="#EFEFEF" opacity="1.000000" stroke="none" 
	d="
M230.811066,380.468201 
	C229.271133,375.830658 228.089157,371.467346 226.319916,367.356873 
	C225.387497,365.190613 223.429916,363.465637 221.452377,361.858765 
	C221.089432,355.512756 225.972122,352.244354 231.880844,355.110840 
	C232.941574,355.625458 233.585999,357.395752 234.029251,358.718140 
	C236.173843,365.116394 238.184143,371.559662 241.499344,378.134735 
	C242.101547,376.775665 242.814346,375.453674 243.284637,374.050385 
	C244.552689,370.266724 245.708893,366.445679 246.924789,362.644379 
	C249.711151,353.933136 249.714859,353.934326 259.702667,355.393463 
	C258.135010,360.162933 256.610901,364.839600 255.060562,369.507507 
	C252.648773,376.769104 249.945587,383.948792 247.900772,391.311768 
	C246.694199,395.656311 243.692123,394.705750 240.847244,394.761871 
	C238.065125,394.816772 235.192657,395.390015 234.330017,391.272675 
	C233.584808,387.715942 232.089035,384.316437 230.811066,380.468201 
z"/>
<path fill="#EEEEEE" opacity="1.000000" stroke="none" 
	d="
M328.798462,363.957153 
	C322.864288,361.316376 319.384583,362.826782 318.151978,368.651733 
	C317.510071,371.685211 317.427185,374.929993 317.669891,378.034119 
	C317.972595,381.906342 318.839600,385.908997 323.436584,386.989014 
	C327.988068,388.058289 329.982086,384.780304 331.659668,380.743774 
	C334.920959,382.086792 337.881470,383.305939 340.820007,384.516022 
	C338.257141,391.735260 332.880646,395.577484 325.594849,395.759369 
	C317.383270,395.964355 311.269562,392.402771 308.419098,385.387512 
	C305.679016,378.643860 305.531708,371.669312 308.122833,364.886719 
	C310.569305,358.482758 315.338043,354.550873 322.329163,353.910217 
	C329.164642,353.283813 335.107635,354.950806 339.909790,362.254089 
	C335.819519,363.000885 332.469910,363.612457 328.798462,363.957153 
z"/>
<path fill="#F1F1F1" opacity="1.000000" stroke="none" 
	d="
M390.844360,370.061768 
	C390.324768,367.086792 389.936829,364.566223 389.253662,362.128357 
	C388.299591,358.723816 391.074097,354.907532 394.734131,354.852203 
	C396.708160,354.822357 398.683014,354.846893 401.023102,354.846893 
	C401.023102,368.208405 401.023102,381.217865 401.023102,394.497528 
	C397.701233,394.497528 394.608002,394.497528 390.844330,394.497528 
	C390.844330,386.405609 390.844330,378.479340 390.844360,370.061768 
z"/>
<path fill="#EBEBEB" opacity="1.000000" stroke="none" 
	d="
M391.598755,205.736130 
	C390.371246,205.013397 388.872559,204.207382 388.632538,203.122849 
	C387.537354,198.173309 384.521332,195.437881 379.751221,194.241562 
	C378.689606,193.975311 377.748566,193.228439 376.162476,191.861954 
	C383.486725,189.740662 388.864990,185.821945 390.695404,177.508301 
	C392.785461,185.596481 397.589783,189.937988 405.374603,191.897888 
	C398.386841,194.673615 393.126068,198.197876 391.598755,205.736130 
z"/>
<path fill="#EBEBEB" opacity="1.000000" stroke="none" 
	d="
M272.885590,181.844772 
	C273.620880,180.411758 274.242096,179.326309 275.809448,176.587769 
	C277.560211,185.339813 281.987640,190.040924 289.882904,191.173141 
	C289.744324,191.647461 289.605774,192.121780 289.467194,192.596100 
	C286.315918,194.135757 282.546326,195.053848 280.192627,197.395264 
	C277.975647,199.600662 277.250885,203.306046 275.289459,207.630737 
	C273.275574,203.212845 272.527466,199.488113 270.291656,197.248764 
	C268.024109,194.977631 264.287109,194.173660 260.485626,192.396011 
	C264.757599,188.430954 272.389587,189.392532 272.885590,181.844772 
z"/>
<path fill="#101010" opacity="1.000000" stroke="none" 
	d="
M282.581299,362.417969 
	C289.473297,366.300751 291.040894,380.943207 285.431732,385.754425 
	C282.456146,388.306702 277.951477,387.757141 276.047974,384.114166 
	C272.861603,378.016052 272.780579,371.517761 276.062744,365.510773 
	C276.981628,363.829041 280.106262,363.352478 282.581299,362.417969 
z"/>
<path fill="#242424" opacity="1.000000" stroke="none" 
	d="
M364.076721,379.999512 
	C359.300201,378.031036 363.879456,375.236816 363.060944,372.915039 
	C363.018646,372.795074 364.213562,372.238983 364.832458,371.885986 
	C366.086609,374.161224 367.340698,376.436432 368.951813,379.359375 
	C366.903717,379.658844 365.708008,379.833710 364.076721,379.999512 
z"/>
<path fill="#2E2E2E" opacity="1.000000" stroke="none" 
	d="
M425.060486,379.954559 
	C424.728485,376.659119 424.844696,373.430878 424.960907,370.202606 
	C425.675415,370.139282 426.389954,370.075989 427.104462,370.012665 
	C428.214325,373.100861 429.324188,376.189087 430.701599,380.021729 
	C428.386780,380.021729 426.947754,380.021729 425.060486,379.954559 
z"/>
</svg>